<?xml version="1.0" encoding="UTF-8" standalone="no"?>
<!-- Created with Inkscape (http://www.inkscape.org/) -->

<svg
   width="210.00009mm"
   height="63.879303mm"
   viewBox="0 0 210.00009 63.879303"
   version="1.1"
   id="svg1"
   xmlns="http://www.w3.org/2000/svg"
   xmlns:svg="http://www.w3.org/2000/svg">
  <defs
     id="defs1">
    <filter
       style="color-interpolation-filters:sRGB"
       id="filter2"
       x="-0.023237073"
       y="-0.07639075"
       width="1.0464741"
       height="1.1527815">
      <feGaussianBlur
         stdDeviation="2.0332449"
         id="feGaussianBlur2" />
    </filter>
  </defs>
  <g
     id="layer1"
     transform="translate(-2.8956398,-113.60341)">
    <path
       id="path2"
       style="fill:#000000;fill-opacity:1;stroke-width:6.35;stroke-linejoin:bevel;filter:url(#filter2)"
       d="m 2.89564,113.60342 v 63.8793 h 210.0001 v -63.8793 z m 79.25356,17.17776 h 8.996867 v 32.01613 H 82.1492 Z m -71.508296,1.73168 h 10.010241 l 2.534729,17.82423 c 0.04224,0.22527 0.105177,0.88012 0.189653,1.96422 l 0.127124,1.75287 h 0.126607 c 0.02816,-0.36606 0.112422,-0.98589 0.253215,-1.8588 0.140792,-0.88699 0.274812,-1.54844 0.401526,-1.9849 l 4.666898,-17.69762 h 9.947197 l 3.886067,17.95084 0.274402,1.79524 0.21084,1.75286 h 0.08475 l 0.06356,-0.73897 0.274402,-2.93574 2.639632,-17.82423 h 8.996867 l -7.645011,30.28445 h -9.693465 l -4.202845,-17.25424 c -0.126713,-0.49277 -0.267324,-1.7177 -0.422196,-3.67471 h -0.08475 c -0.211189,1.73174 -0.415257,2.95667 -0.612366,3.67471 l -4.540808,17.25424 H 17.863719 Z m 57.802156,8.13077 c 2.238598,0 4.153399,0.43657 5.744352,1.30948 1.590954,0.87291 2.795071,2.09783 3.611666,3.67471 0.830675,1.57687 1.245919,3.42111 1.245919,5.53299 v 3.37913 H 65.676821 c 0.154871,0.92923 0.68992,1.66123 1.60507,2.19624 0.91515,0.52094 2.125858,0.78135 3.632336,0.78135 2.097806,0 4.083171,-0.40154 5.955709,-1.20406 v 5.7025 c -2.182281,0.87291 -4.829607,1.30896 -7.941117,1.30896 -3.773234,0 -6.708376,-0.96399 -8.806181,-2.89285 -2.097806,-1.92885 -3.147095,-4.58277 -3.147095,-7.96178 0,-2.32308 0.457893,-4.3719 1.373043,-6.14588 0.929229,-1.77399 2.294766,-3.16085 4.096908,-4.16047 1.81622,-1.01371 3.815285,-1.52032 5.997566,-1.52032 z m 38.90098,0 c 1.40793,0 2.66839,0.0914 3.78065,0.2744 1.12634,0.18303 1.85124,0.3942 2.17506,0.63355 v 7.01146 c -0.45053,-0.35198 -1.09828,-0.66164 -1.94303,-0.92914 -0.84475,-0.26751 -1.626,-0.40153 -2.34404,-0.40153 -1.75991,0 -3.09753,0.42287 -4.01268,1.26763 -0.90107,0.83067 -1.35134,2.00584 -1.35134,3.52639 0,1.4924 0.44316,2.65439 1.33015,3.48506 0.90108,0.8166 2.13311,1.22473 3.6959,1.22473 1.67543,0 3.21712,-0.40154 4.62504,-1.20406 v 6.65283 c -0.57724,0.3379 -1.48541,0.61201 -2.72438,0.8232 -1.23897,0.21119 -2.66796,0.31678 -4.28707,0.31678 -2.28084,0 -4.32255,-0.45738 -6.12469,-1.37253 -1.788068,-0.92923 -3.174412,-2.22471 -4.159958,-3.88606 -0.985546,-1.66135 -1.478463,-3.5264 -1.478463,-5.59604 0,-2.47795 0.520832,-4.59734 1.562695,-6.35724 1.055943,-1.77398 2.5555,-3.1253 4.498436,-4.05453 1.94293,-0.94331 4.1953,-1.4149 6.75772,-1.4149 z m 21.09794,0 c 2.56242,0 4.77977,0.47159 6.65231,1.4149 1.88662,0.94331 3.32983,2.25249 4.32945,3.92792 1.01371,1.67543 1.52084,3.5481 1.52084,5.61775 0,3.64652 -1.10564,6.51161 -3.31608,8.59534 -2.19636,2.08373 -5.27263,3.12539 -9.22889,3.12539 -3.92811,0 -6.99016,-1.01323 -9.18652,-3.04064 -2.18228,-2.04149 -3.2737,-4.85075 -3.2737,-8.42688 0,-2.29491 0.51424,-4.28687 1.54202,-5.97638 1.02778,-1.6895 2.4918,-2.98499 4.3925,-3.88606 1.90069,-0.90108 4.09013,-1.35134 6.56807,-1.35134 z m 32.0797,0 c 1.53463,0 2.8225,0.30254 3.86436,0.90795 1.05594,0.60541 1.93619,1.56281 2.64015,2.87218 0.76028,-1.21082 1.77403,-2.13978 3.04116,-2.78743 1.26713,-0.66172 2.6748,-0.9927 4.22351,-0.9927 2.26676,0 4.00541,0.73911 5.21622,2.21743 1.21082,1.47832 1.81643,3.61141 1.81643,6.3991 v 13.53715 h -8.97568 v -12.46022 c 0,-1.04186 -0.18985,-1.816 -0.56999,-2.32285 -0.36606,-0.52094 -0.97167,-0.78187 -1.81643,-0.78187 -0.83067,0 -1.4779,0.31677 -1.94252,0.95033 -0.46461,0.61949 -0.69711,1.48552 -0.69711,2.59778 v 12.01683 h -8.99687 v -12.24886 c 0,-2.21044 -0.75281,-3.31608 -2.25929,-3.31608 -0.91515,0 -1.60503,0.32387 -2.06964,0.97152 -0.46462,0.63356 -0.69712,1.54883 -0.69712,2.74557 v 11.84785 H 144.302 v -21.62607 h 8.99686 v 3.4215 h 0.0842 c 0.3379,-0.60541 0.87295,-1.21761 1.60507,-1.8371 0.74619,-0.63356 1.58431,-1.1407 2.51354,-1.52083 0.92923,-0.39422 1.93587,-0.59118 3.01997,-0.59118 z m 35.39525,0 c 2.2386,0 4.15289,0.43657 5.74384,1.30948 1.59095,0.87291 2.79507,2.09783 3.61166,3.67471 0.83068,1.57687 1.24592,3.42111 1.24592,5.53299 v 3.37913 h -13.36817 c 0.15487,0.92923 0.68992,1.66123 1.60507,2.19624 0.91515,0.52094 2.12586,0.78135 3.63233,0.78135 2.09781,0 4.08317,-0.40154 5.95571,-1.20406 v 5.7025 c -2.18228,0.87291 -4.8296,1.30896 -7.94112,1.30896 -3.77323,0 -6.70837,-0.96399 -8.80618,-2.89285 -2.0978,-1.92885 -3.14709,-4.58277 -3.14709,-7.96178 0,-2.32308 0.45789,-4.3719 1.37304,-6.14588 0.92923,-1.77399 2.29477,-3.16085 4.09691,-4.16047 1.81622,-1.01371 3.8158,-1.52032 5.99808,-1.52032 z m -127.515728,5.44876 c -0.746199,0 -1.372619,0.34468 -1.879472,1.03456 -0.506852,0.67581 -0.802808,1.57686 -0.887284,2.7032 h 5.448763 c 0,-2.49203 -0.893944,-3.73776 -2.682007,-3.73776 z m 127.473358,0 c -0.7462,0 -1.37262,0.34468 -1.87947,1.03456 -0.50686,0.67581 -0.80281,1.57686 -0.88729,2.7032 h 5.44877 c 0,-2.49203 -0.89395,-3.73776 -2.68201,-3.73776 z m -67.43258,1.13998 c -2.25268,0 -3.37912,1.54169 -3.37912,4.62504 0,3.25231 1.14066,4.87877 3.4215,4.87877 2.22452,0 3.33674,-1.69651 3.33674,-5.08961 0,-2.94256 -1.12644,-4.4142 -3.37912,-4.4142 z" />
    <path
       id="rect1"
       style="fill:#ffffff;fill-opacity:1;stroke-width:6.35;stroke-linejoin:bevel"
       d="m 2.89564,113.60342 v 63.8793 h 210.0001 v -63.8793 z m 79.25356,17.17776 h 8.996867 v 32.01613 H 82.1492 Z m -71.508296,1.73168 h 10.010241 l 2.534729,17.82423 c 0.04224,0.22527 0.105177,0.88012 0.189653,1.96422 l 0.127124,1.75287 h 0.126607 c 0.02816,-0.36606 0.112422,-0.98589 0.253215,-1.8588 0.140792,-0.88699 0.274812,-1.54844 0.401526,-1.9849 l 4.666898,-17.69762 h 9.947197 l 3.886067,17.95084 0.274402,1.79524 0.21084,1.75286 h 0.08475 l 0.06356,-0.73897 0.274402,-2.93574 2.639632,-17.82423 h 8.996867 l -7.645011,30.28445 h -9.693465 l -4.202845,-17.25424 c -0.126713,-0.49277 -0.267324,-1.7177 -0.422196,-3.67471 h -0.08475 c -0.211189,1.73174 -0.415257,2.95667 -0.612366,3.67471 l -4.540808,17.25424 H 17.863719 Z m 57.802156,8.13077 c 2.238598,0 4.153399,0.43657 5.744352,1.30948 1.590954,0.87291 2.795071,2.09783 3.611666,3.67471 0.830675,1.57687 1.245919,3.42111 1.245919,5.53299 v 3.37913 H 65.676821 c 0.154871,0.92923 0.68992,1.66123 1.60507,2.19624 0.91515,0.52094 2.125858,0.78135 3.632336,0.78135 2.097806,0 4.083171,-0.40154 5.955709,-1.20406 v 5.7025 c -2.182281,0.87291 -4.829607,1.30896 -7.941117,1.30896 -3.773234,0 -6.708376,-0.96399 -8.806181,-2.89285 -2.097806,-1.92885 -3.147095,-4.58277 -3.147095,-7.96178 0,-2.32308 0.457893,-4.3719 1.373043,-6.14588 0.929229,-1.77399 2.294766,-3.16085 4.096908,-4.16047 1.81622,-1.01371 3.815285,-1.52032 5.997566,-1.52032 z m 38.90098,0 c 1.40793,0 2.66839,0.0914 3.78065,0.2744 1.12634,0.18303 1.85124,0.3942 2.17506,0.63355 v 7.01146 c -0.45053,-0.35198 -1.09828,-0.66164 -1.94303,-0.92914 -0.84475,-0.26751 -1.626,-0.40153 -2.34404,-0.40153 -1.75991,0 -3.09753,0.42287 -4.01268,1.26763 -0.90107,0.83067 -1.35134,2.00584 -1.35134,3.52639 0,1.4924 0.44316,2.65439 1.33015,3.48506 0.90108,0.8166 2.13311,1.22473 3.6959,1.22473 1.67543,0 3.21712,-0.40154 4.62504,-1.20406 v 6.65283 c -0.57724,0.3379 -1.48541,0.61201 -2.72438,0.8232 -1.23897,0.21119 -2.66796,0.31678 -4.28707,0.31678 -2.28084,0 -4.32255,-0.45738 -6.12469,-1.37253 -1.788068,-0.92923 -3.174412,-2.22471 -4.159958,-3.88606 -0.985546,-1.66135 -1.478463,-3.5264 -1.478463,-5.59604 0,-2.47795 0.520832,-4.59734 1.562695,-6.35724 1.055943,-1.77398 2.5555,-3.1253 4.498436,-4.05453 1.94293,-0.94331 4.1953,-1.4149 6.75772,-1.4149 z m 21.09794,0 c 2.56242,0 4.77977,0.47159 6.65231,1.4149 1.88662,0.94331 3.32983,2.25249 4.32945,3.92792 1.01371,1.67543 1.52084,3.5481 1.52084,5.61775 0,3.64652 -1.10564,6.51161 -3.31608,8.59534 -2.19636,2.08373 -5.27263,3.12539 -9.22889,3.12539 -3.92811,0 -6.99016,-1.01323 -9.18652,-3.04064 -2.18228,-2.04149 -3.2737,-4.85075 -3.2737,-8.42688 0,-2.29491 0.51424,-4.28687 1.54202,-5.97638 1.02778,-1.6895 2.4918,-2.98499 4.3925,-3.88606 1.90069,-0.90108 4.09013,-1.35134 6.56807,-1.35134 z m 32.0797,0 c 1.53463,0 2.8225,0.30254 3.86436,0.90795 1.05594,0.60541 1.93619,1.56281 2.64015,2.87218 0.76028,-1.21082 1.77403,-2.13978 3.04116,-2.78743 1.26713,-0.66172 2.6748,-0.9927 4.22351,-0.9927 2.26676,0 4.00541,0.73911 5.21622,2.21743 1.21082,1.47832 1.81643,3.61141 1.81643,6.3991 v 13.53715 h -8.97568 v -12.46022 c 0,-1.04186 -0.18985,-1.816 -0.56999,-2.32285 -0.36606,-0.52094 -0.97167,-0.78187 -1.81643,-0.78187 -0.83067,0 -1.4779,0.31677 -1.94252,0.95033 -0.46461,0.61949 -0.69711,1.48552 -0.69711,2.59778 v 12.01683 h -8.99687 v -12.24886 c 0,-2.21044 -0.75281,-3.31608 -2.25929,-3.31608 -0.91515,0 -1.60503,0.32387 -2.06964,0.97152 -0.46462,0.63356 -0.69712,1.54883 -0.69712,2.74557 v 11.84785 H 144.302 v -21.62607 h 8.99686 v 3.4215 h 0.0842 c 0.3379,-0.60541 0.87295,-1.21761 1.60507,-1.8371 0.74619,-0.63356 1.58431,-1.1407 2.51354,-1.52083 0.92923,-0.39422 1.93587,-0.59118 3.01997,-0.59118 z m 35.39525,0 c 2.2386,0 4.15289,0.43657 5.74384,1.30948 1.59095,0.87291 2.79507,2.09783 3.61166,3.67471 0.83068,1.57687 1.24592,3.42111 1.24592,5.53299 v 3.37913 h -13.36817 c 0.15487,0.92923 0.68992,1.66123 1.60507,2.19624 0.91515,0.52094 2.12586,0.78135 3.63233,0.78135 2.09781,0 4.08317,-0.40154 5.95571,-1.20406 v 5.7025 c -2.18228,0.87291 -4.8296,1.30896 -7.94112,1.30896 -3.77323,0 -6.70837,-0.96399 -8.80618,-2.89285 -2.0978,-1.92885 -3.14709,-4.58277 -3.14709,-7.96178 0,-2.32308 0.45789,-4.3719 1.37304,-6.14588 0.92923,-1.77399 2.29477,-3.16085 4.09691,-4.16047 1.81622,-1.01371 3.8158,-1.52032 5.99808,-1.52032 z m -127.515728,5.44876 c -0.746199,0 -1.372619,0.34468 -1.879472,1.03456 -0.506852,0.67581 -0.802808,1.57686 -0.887284,2.7032 h 5.448763 c 0,-2.49203 -0.893944,-3.73776 -2.682007,-3.73776 z m 127.473358,0 c -0.7462,0 -1.37262,0.34468 -1.87947,1.03456 -0.50686,0.67581 -0.80281,1.57686 -0.88729,2.7032 h 5.44877 c 0,-2.49203 -0.89395,-3.73776 -2.68201,-3.73776 z m -67.43258,1.13998 c -2.25268,0 -3.37912,1.54169 -3.37912,4.62504 0,3.25231 1.14066,4.87877 3.4215,4.87877 2.22452,0 3.33674,-1.69651 3.33674,-5.08961 0,-2.94256 -1.12644,-4.4142 -3.37912,-4.4142 z" />
  </g>
</svg>
